<?xml version="1.0" encoding="UTF-8"?>
<?DOCTYPE svg PUBLIC "-//W3C//DTD SVG 1.0//EN" "http://www.w3.org/TR/2001/REC-SVG-20010904/DTD/svg10.dtd"  type=""?>
<svg xmlns:xlink="http://www.w3.org/1999/xlink" height="360" xmlns="http://www.w3.org/2000/svg" width="600">
  <g id="scruffy_graph">
    <g transform="translate(0.0, 0.0)" id="background">
      <defs>
        <linearGradient y2="100%" x1="0%" y1="0%" id="BackgroundGradient" x2="0%">
          <stop stop-color="black" offset="5%"/>
          <stop stop-color="#4A465A" offset="95%"/>
        </linearGradient>
      </defs>
      <rect y="0" x="0" height="360.0" fill="url(#BackgroundGradient)" width="600.0"/>
    </g>
    <g transform="translate(-90.0, 43.2)" id="graphs">
      <g class="graph_layer" id="component_graphs_graph_0">
        <path d="M270.0,158.4 L390.517881744922,197.558633527193 A126.72,126.72 0, 0, 1, 319.32830787254 275.124789322714 Z" stroke="none" fill="#FDD84E"/>
        <text y="270.725860035269" x="382.031804390038" font-size="19.008" text-anchor="middle" fill="white">13%</text>
        <path d="M270.0,158.4 L319.32830787254,275.124789322714 A126.72,126.72 0, 0, 1, 143.331677324812 154.781377243423 Z" stroke="none" fill="#72AE6E"/>
        <text y="293.428558539747" x="184.168506366244" font-size="19.008" text-anchor="middle" fill="white">31%</text>
        <path d="M270.0,158.4 L143.331677324812,154.781377243423 A126.72,126.72 0, 0, 1, 165.396201216877 86.8737553052029 Z" stroke="none" fill="#D1695E"/>
        <text y="120.913639767368" x="125.378541906094" font-size="19.008" text-anchor="middle" fill="white">9%</text>
        <path d="M270.0,158.4 L165.396201216877,86.8737553052029 A126.72,126.72 0, 0, 1, 390.517881744922 197.558633527193 Z" stroke="none" fill="#8A6EAF"/>
        <text y="31.4420053394773" x="337.093845539449" font-size="19.008" text-anchor="middle" fill="white">45%</text>
      </g>
    </g>
    <g transform="translate(30.0, 7.2)" id="title">
      <text y="25.2" class="title" x="270.0" font-size="25.2" text-anchor="middle" fill="white" stroke="none" stroke-width="0">Favourite Snacks</text>
    </g>
    <g transform="translate(360.0, 54.0)" id="legend">
      <rect y="0.0" x="0" height="12.672" fill="#FDD84E" width="12.672"/>
      <text y="15.2064" x="25.344" font-size="20.2752" style="color: white" fill="white">Taco</text>
      <rect y="25.344" x="0" height="12.672" fill="#72AE6E" width="12.672"/>
      <text y="40.5504" x="25.344" font-size="20.2752" style="color: white" fill="white">Orange</text>
      <rect y="50.688" x="0" height="12.672" fill="#D1695E" width="12.672"/>
      <text y="65.8944" x="25.344" font-size="20.2752" style="color: white" fill="white">Apple</text>
      <rect y="76.032" x="0" height="12.672" fill="#8A6EAF" width="12.672"/>
      <text y="91.2384" x="25.344" font-size="20.2752" style="color: white" fill="white">Banana</text>
    </g>
  </g>
</svg>
